<svg width="127" height="36" viewBox="0 0 127 36" fill="none" xmlns="http://www.w3.org/2000/svg">
<path fill-rule="evenodd" clip-rule="evenodd" d="M6.58594 6.10492H18.1296L18.1287 17.5437H6.58594V6.10492Z" fill="#3A3A3A"/>
<path fill-rule="evenodd" clip-rule="evenodd" d="M19.3082 6.10492H30.8519C30.8519 9.91784 30.8526 13.7308 30.8512 17.5437C27.004 17.543 23.1561 17.5437 19.3089 17.5437C19.3075 13.7308 19.3082 9.91784 19.3082 6.10492Z" fill="#3A3A3A"/>
<path fill-rule="evenodd" clip-rule="evenodd" d="M110.684 10.4633C111.748 9.77704 113.123 9.71292 114.322 10.04C114.333 10.7464 114.324 11.4533 114.327 12.16C113.757 11.9115 113.086 11.7493 112.487 11.9931C112.011 12.1802 111.728 12.6639 111.654 13.1473C111.565 13.7608 111.623 14.3825 111.608 14.9995C112.825 15.0022 114.043 15.0002 115.26 15.0009C115.269 14.2176 115.251 13.4338 115.271 12.6505C116.099 12.4174 116.917 12.1553 117.741 11.9095C117.748 12.9412 117.731 13.9738 117.75 15.0064C118.573 14.9946 119.397 15.0037 120.22 15.0009V17.0099C119.394 16.976 118.567 17.0006 117.74 16.998C117.744 18.153 117.741 19.3079 117.742 20.4632C117.755 21.1029 117.707 21.7459 117.783 22.3835C117.828 22.7594 117.966 23.1758 118.322 23.3702C118.918 23.7006 119.673 23.5564 120.22 23.1936V25.2222C119.507 25.5293 118.71 25.6229 117.938 25.5685C117.206 25.5148 116.447 25.2513 115.97 24.6739C115.418 24.0221 115.276 23.1392 115.264 22.3134C115.258 20.5411 115.265 18.7685 115.262 16.9953C114.043 16.9944 112.825 16.994 111.608 16.996C111.606 19.7776 111.607 22.5595 111.607 25.3413H109.11C109.11 22.5599 109.107 19.7798 109.112 16.9988C108.533 16.9878 107.953 17.0015 107.375 16.9897C107.377 16.3297 107.379 15.6687 107.373 15.0077C107.949 14.9947 108.526 15.0002 109.104 15.0044C109.146 14.1262 109.011 13.223 109.276 12.3677C109.499 11.5955 109.997 10.8988 110.684 10.4633ZM57.2305 10.6075C57.7338 10.5319 58.2786 10.7023 58.6122 11.0925C59.0034 11.5199 59.0755 12.1999 58.7855 12.6996C58.4651 13.2627 57.7484 13.5245 57.1237 13.3894C56.4755 13.274 55.9354 12.6767 55.9643 12.0111C55.9457 11.3104 56.537 10.6858 57.2305 10.6073V10.6075ZM38.0969 10.9139H41.7278C42.8579 13.7577 43.9963 16.5981 45.1279 19.4417C45.417 20.153 45.6875 20.8721 45.9904 21.5777C47.4443 18.0246 48.9189 14.4803 50.3616 10.9221C51.5259 10.9035 52.6905 10.9179 53.8553 10.9153C53.8526 15.7237 53.8539 20.532 53.8548 25.3404C53.0145 25.3385 52.1748 25.3475 51.3352 25.3356C51.3441 21.7873 51.3345 18.2389 51.3394 14.6898C51.3407 14.5303 51.3352 14.3707 51.324 14.2117C51.2747 14.2858 51.2313 14.3627 51.1932 14.4426C49.7501 18.0745 48.2797 21.6964 46.8453 25.332C46.2477 25.3535 45.6494 25.3336 45.0509 25.3429C43.5626 21.711 42.0926 18.0705 40.6116 14.4355C40.5727 14.3599 40.5313 14.2864 40.486 14.2159C40.4556 15.7703 40.4813 17.3263 40.473 18.8812C40.4735 21.0343 40.4717 23.1874 40.4735 25.3404C39.6813 25.3424 38.8889 25.3404 38.0969 25.3413C38.0962 20.532 38.0956 15.7228 38.0969 10.9139ZM64.1014 14.9913C65.306 14.6512 66.6056 14.6649 67.8098 15.0022C68.0581 15.071 68.2984 15.1664 68.5221 15.2964C68.508 16.0843 68.5221 16.873 68.5142 17.6618C67.709 17.0523 66.688 16.6663 65.6647 16.7941C64.8519 16.8668 64.077 17.2846 63.5911 17.9352C62.9662 18.7417 62.822 19.8127 62.9297 20.7993C63.0101 21.5715 63.3323 22.3431 63.9384 22.855C64.5678 23.4092 65.4502 23.6056 66.274 23.5439C67.0881 23.4512 67.8564 23.1095 68.5142 22.6327C68.5212 23.3795 68.5106 24.1263 68.5198 24.8732C67.499 25.4751 66.2756 25.6302 65.1072 25.5736C63.912 25.5108 62.7201 25.0622 61.8549 24.2295C60.9147 23.3316 60.4044 22.0509 60.344 20.7685C60.2831 19.4348 60.5569 18.0437 61.3314 16.9301C61.9803 15.9798 62.9955 15.3073 64.1014 14.9913ZM91.3728 14.834C92.5272 14.6326 93.7357 14.7803 94.8282 15.1906C94.8297 15.9492 94.8281 16.7066 94.8288 17.4646C94.0655 16.9445 93.1329 16.6647 92.2066 16.6971C91.7402 16.7151 91.2272 16.911 91.0143 17.3505C90.845 17.7854 90.9623 18.3556 91.3764 18.6161C92.0839 19.0854 92.9285 19.2846 93.662 19.7048C94.2395 20.0265 94.7997 20.4468 95.0926 21.0529C95.6423 22.1878 95.4094 23.6877 94.4426 24.5342C93.5201 25.3886 92.1909 25.6249 90.9686 25.5796C90.1005 25.5239 89.2284 25.3542 88.4304 25.0023C88.4339 24.2049 88.4254 23.4079 88.4344 22.6109C89.1057 23.094 89.88 23.4394 90.6995 23.5796C91.2702 23.6715 91.8909 23.6759 92.4225 23.423C92.9314 23.1723 93.0228 22.4556 92.7207 22.0172C92.4377 21.6793 92.0223 21.4934 91.6307 21.3105C90.8952 20.9828 90.122 20.7086 89.476 20.2176C89.0217 19.8664 88.6778 19.3718 88.5434 18.8138C88.3437 17.9915 88.406 17.0647 88.8885 16.3461C89.4398 15.5085 90.3972 15.0064 91.3728 14.834ZM74.1044 15.1597C74.7933 14.7495 75.669 14.7151 76.4214 14.966C76.418 15.7912 76.4214 16.6159 76.4194 17.441C75.927 17.1253 75.3128 16.9897 74.732 17.0483C74.0231 17.128 73.4615 17.6671 73.1707 18.2857C72.8543 18.9402 72.7947 19.6806 72.8146 20.3966C72.8146 22.0447 72.8155 23.693 72.8146 25.3413H70.3534C70.3514 21.8965 70.3563 18.4512 70.3514 15.0064C71.1729 14.996 71.9947 15.0002 72.8162 15.0042C72.8128 15.5959 72.8162 16.1872 72.8142 16.7796C73.0811 16.136 73.4783 15.5107 74.1044 15.1595V15.1597ZM56.1911 15.0042C57.0189 15.0009 57.8476 14.9929 58.6752 15.0084C58.6655 18.4528 58.6747 21.8972 58.6711 25.3413H56.1924C56.1904 21.8958 56.1933 18.4504 56.1911 15.0044V15.0042ZM81.016 14.8134C82.2142 14.6623 83.4779 14.7297 84.5901 15.2312C85.5551 15.6625 86.3373 16.4601 86.7705 17.4153C87.2327 18.4315 87.3453 19.5737 87.2669 20.6764C87.1899 21.7527 86.8489 22.8315 86.1693 23.6868C85.4741 24.5952 84.4259 25.2107 83.3033 25.4394C82.3436 25.6373 81.3398 25.6364 80.3801 25.4367C79.2321 25.1933 78.1692 24.5333 77.4959 23.5728C76.7058 22.4598 76.4812 21.0447 76.5815 19.711C76.6493 18.5795 77.0044 17.439 77.7339 16.5515C78.5326 15.5573 79.7579 14.9707 81.016 14.8134ZM81.7605 16.777C81.1638 16.8098 80.5606 17.0099 80.1181 17.4191C79.508 17.9669 79.2292 18.7829 79.1538 19.5764C79.0705 20.449 79.1307 21.3689 79.5331 22.1643C79.8456 22.782 80.4204 23.2672 81.0978 23.4436C81.7634 23.6147 82.4878 23.6003 83.1326 23.3549C83.6837 23.1421 84.1205 22.6926 84.3592 22.161C84.7195 21.3722 84.7551 20.4854 84.7108 19.6343C84.649 18.8562 84.426 18.041 83.8487 17.479C83.3095 16.9383 82.5108 16.7282 81.7605 16.777ZM100.915 14.8098C102.161 14.657 103.484 14.7397 104.621 15.3088C105.612 15.8001 106.381 16.6878 106.765 17.7139C107.065 18.4992 107.171 19.3469 107.153 20.183C107.155 21.4319 106.815 22.7139 106.024 23.7046C105.283 24.6637 104.151 25.287 102.955 25.4827C101.785 25.6702 100.549 25.6216 99.438 25.188C98.3122 24.7492 97.3763 23.853 96.9018 22.7496C96.4076 21.6252 96.3554 20.3596 96.5095 19.1581C96.6709 17.9562 97.2202 16.7816 98.1561 15.9827C98.923 15.3157 99.9102 14.9378 100.915 14.8098ZM101.589 16.779C100.898 16.8173 100.213 17.1122 99.7667 17.6452C99.2773 18.2163 99.067 18.9698 99.0101 19.7042C98.9515 20.4625 99.0101 21.248 99.3061 21.9569C99.5524 22.5519 100.02 23.0691 100.623 23.3221C101.182 23.5606 101.811 23.6029 102.409 23.5144C102.966 23.4332 103.505 23.1696 103.868 22.7367C104.227 22.3061 104.417 21.7632 104.513 21.2191C104.634 20.4887 104.635 19.7366 104.492 19.0097C104.366 18.39 104.089 17.7745 103.589 17.3636C103.047 16.8917 102.294 16.7304 101.589 16.779Z" fill="#3A3A3A"/>
<path fill-rule="evenodd" clip-rule="evenodd" d="M6.58594 18.711C10.4338 18.7123 14.2817 18.7106 18.1296 18.7123C18.1303 22.5252 18.1296 26.3375 18.1296 30.1504H6.58594V18.711Z" fill="#3A3A3A"/>
<path fill-rule="evenodd" clip-rule="evenodd" d="M19.3087 18.7124C23.1559 18.711 27.0038 18.7117 30.8517 18.7117V30.1505H19.308C19.3087 26.3375 19.3074 22.5246 19.3087 18.7124Z" fill="#3A3A3A"/>
</svg>
