<svg width="150" height="60" viewBox="0 0 150 60" fill="none" xmlns="http://www.w3.org/2000/svg">
<g clip-path="url(#clip0_2_847)">
<path d="M134.629 38.5825C135.122 38.5825 135.414 38.5019 135.597 38.3391C135.739 38.1905 135.81 37.8453 135.81 37.2834V25.7705C135.81 25.1814 135.746 24.7905 135.623 24.5956C135.461 24.3484 135.116 24.2248 134.594 24.2248H134.195V23.394L138.826 23.0352V37.2894C138.826 38.0212 139.022 38.4339 139.415 38.5221C139.571 38.5623 139.801 38.5825 140.099 38.5825V39.477H134.629V38.5825ZM127.363 34.4387C127.789 34.0766 128.554 33.7892 129.659 33.5714V35.2107C129.659 36.1385 129.516 36.8424 129.239 37.3232C128.881 37.9667 128.413 38.2847 127.831 38.2847C127.485 38.2847 127.194 38.1366 126.957 37.8317C126.72 37.5263 126.599 37.0863 126.599 36.5043C126.598 35.5559 126.856 34.8721 127.363 34.4387ZM125.396 30.0564C125.488 29.8141 125.725 29.5822 126.111 29.3622C126.556 29.1121 127.057 28.9815 127.567 28.9833C128.962 28.9833 129.659 29.6214 129.659 30.9009V32.6611C127.594 33.0634 126.118 33.5278 125.218 34.0527C124.047 34.7294 123.458 35.6779 123.458 36.8969C123.458 37.6145 123.678 38.2444 124.121 38.779C124.7 39.4705 125.558 39.8146 126.695 39.8146C127.342 39.8146 127.961 39.6316 128.55 39.2592C129.099 38.92 129.511 38.4872 129.789 37.9586V38.5003C129.805 38.9609 129.805 39.2925 129.789 39.4754H133.793V38.5814H133.64C132.997 38.5814 132.676 38.1404 132.676 37.254V31.913C132.676 29.3356 131.217 28.0452 128.306 28.0452C127.128 28.0452 126.14 28.294 125.337 28.7917C124.534 29.2877 124.135 29.9372 124.135 30.7451C124.135 31.3016 124.318 31.742 124.691 32.0622C125.001 32.3285 125.399 32.4724 125.808 32.4667C126.278 32.4667 126.668 32.3191 126.979 32.0246C127.294 31.7333 127.452 31.4039 127.452 31.0435C127.452 30.1501 126.975 29.7014 126.031 29.7014C125.672 29.7014 125.382 29.8163 125.164 30.0433L125.398 30.1343C125.4 30.0836 125.4 30.0564 125.396 30.0564ZM47.889 32.5892C49.714 32.5892 51.1726 32.232 52.2697 31.5226C53.5089 30.7294 54.1252 29.5577 54.1252 28.0017C54.1252 26.3852 53.4991 25.1814 52.2463 24.3876C51.1802 23.7087 49.738 23.3684 47.9163 23.3684H41.8495V24.2471C42.5703 24.2471 43.0173 24.2994 43.1899 24.3996C43.4845 24.5656 43.6331 25.0175 43.6331 25.7591V37.2083C43.6331 37.7696 43.5111 38.1497 43.264 38.3457C43.0609 38.5014 42.6819 38.576 42.1228 38.576H41.8489V39.4705H49.0672V38.576H48.3159C47.7371 38.576 47.3441 38.4878 47.1344 38.2983C46.9248 38.1154 46.8197 37.7566 46.8197 37.2083V32.5892H47.889ZM50.8138 28.0136C50.8138 30.3836 49.8458 31.5683 47.9157 31.5683H46.9003V24.3048H47.9157C49.8458 24.3048 50.8138 25.5424 50.8138 28.0136ZM58.7187 30.5138C59.1385 28.8668 60.0286 28.0425 61.3963 28.0425C61.8972 28.0425 62.2968 28.1781 62.5984 28.4519C62.8995 28.7258 63.052 29.0867 63.052 29.5386C63.0544 29.9241 62.9186 30.2977 62.6692 30.5916C62.3779 30.9303 62.0126 31.1023 61.5722 31.1023C61.1524 31.1023 60.8176 30.9722 60.5704 30.7152C60.3335 30.4898 60.2285 30.2127 60.2486 29.8838C60.2486 29.8533 60.2655 29.7755 60.2927 29.6519C59.8795 30.1718 59.555 31.062 59.3111 32.3148C59.1145 33.3188 59.0132 34.2394 59.0132 35.0692V37.2829C59.0132 37.8039 59.0742 38.1426 59.1891 38.2983C59.3312 38.4878 59.7172 38.576 60.3401 38.576H60.7157V39.4705H54.6429V38.576H54.87C55.2865 38.576 55.5876 38.5014 55.7705 38.3527C55.9529 38.2101 56.0411 37.8448 56.0411 37.2829V32.4553C56.0411 30.7914 55.997 29.8653 55.9055 29.6807C55.777 29.3813 55.5266 29.2321 55.1542 29.2321H54.8362V28.3403H58.6414L58.7187 30.5138ZM71.3222 37.6956C71.2748 37.7233 71.2274 37.7636 71.1664 37.7979L71.3222 37.7103C71.1327 38.2313 70.7837 38.6985 70.2692 39.0981C69.6863 39.5642 68.9608 39.8157 68.2144 39.8102C66.9279 39.8102 66.0209 39.458 65.4927 38.7469C65.073 38.191 64.8595 37.3183 64.8595 36.133V31.4703C64.8595 30.4206 64.8122 29.8081 64.7207 29.6323C64.5922 29.3971 64.2906 29.2751 63.8104 29.2751H63.7157V28.3425H67.9204V36.5261C67.9204 37.609 68.3707 38.1513 69.2712 38.1513C70.016 38.1513 70.5202 37.6368 70.781 36.5871C70.8959 36.1673 70.9503 35.5918 70.9503 34.8601V31.4747C70.9503 30.3167 70.8964 29.6786 70.7842 29.555C70.622 29.3704 70.2834 29.274 69.765 29.274H69.4471V28.3414H74.0379V36.6943C74.0379 37.6085 74.0923 38.1431 74.2039 38.2858C74.346 38.4818 74.6204 38.5765 75.0233 38.5765H75.3108V39.4705H71.235L71.167 37.6765L71.235 37.7234L71.2552 37.7718L71.3222 37.6956ZM80.3513 28.0861C78.8513 28.0861 77.64 28.7296 76.7187 30.0107C75.9064 31.1518 75.5003 32.4553 75.5003 33.9242C75.5003 35.5358 75.7981 36.8424 76.4073 37.8518C77.1794 39.158 78.3739 39.8086 79.9963 39.8086C80.8288 39.8086 81.5529 39.5511 82.1698 39.0366C82.6505 38.6239 82.9652 38.1698 83.1111 37.6754L83.0333 37.7364L82.9418 37.6488L83.0197 39.4705H87.011V38.589H86.8112C86.3544 38.589 86.0522 38.4671 85.9074 38.2302C85.7925 38.0609 85.7376 37.743 85.7376 37.2889V23.0303L81.0662 23.3875V24.2205H81.3711C81.9602 24.2205 82.3391 24.3811 82.5128 24.6996C82.6146 24.8874 82.6756 25.3121 82.6957 25.9758C82.6957 27.7665 82.7262 28.814 82.7872 29.1123C82.3543 28.4263 81.5388 28.0861 80.3513 28.0861ZM82.7202 32.7193V34.9744C82.7202 35.5902 82.6734 36.1047 82.5819 36.5109C82.3043 37.7435 81.7152 38.3658 80.8217 38.3658C79.5689 38.3658 78.9396 36.8827 78.9396 33.9242C78.9396 32.6077 79.0147 31.6375 79.1557 31.0092C79.4426 29.7956 80.0148 29.1886 80.8685 29.1886C82.1017 29.188 82.7202 30.3662 82.7202 32.7193ZM90.4117 33.6503H97.1862C97.1754 31.9767 96.8002 30.6559 96.0625 29.6911C95.23 28.5924 93.9974 28.0425 92.3657 28.0425C90.8657 28.0425 89.6238 28.5826 88.6346 29.6606C87.6393 30.7713 87.1455 32.1863 87.1455 33.904C87.1455 35.6713 87.5789 37.0727 88.4516 38.1094C89.3865 39.2473 90.716 39.8086 92.4392 39.8086C93.7764 39.8086 94.9034 39.3148 95.8175 38.3326C96.6173 37.4724 97.0327 36.5517 97.0637 35.5635H95.9367C95.9258 36.2942 95.6487 36.9791 95.1043 37.6155C94.4874 38.3467 93.7535 38.7055 92.8965 38.7055C91.6748 38.7055 90.9027 37.8322 90.5848 36.0851C90.4705 35.502 90.4117 34.6962 90.4117 33.6503ZM92.3325 28.8918C93.503 28.8918 94.0921 30.1664 94.0921 32.7155H90.4117C90.4225 32.3181 90.4394 31.9876 90.4596 31.7224C90.6147 29.8365 91.2387 28.8918 92.3325 28.8918ZM101.591 29.7891C101.845 29.273 102.251 28.8548 102.806 28.5298C103.361 28.2047 103.977 28.0419 104.657 28.0419C106.888 28.0419 108.004 29.2539 108.004 31.6794V36.7482C108.004 37.3096 108.009 37.6477 108.018 37.7636C108.058 38.3048 108.404 38.5754 109.044 38.5754H109.277V39.4694H104.944V31.289C104.944 30.7234 104.877 30.3172 104.741 30.07C104.546 29.7096 104.176 29.5283 103.631 29.5283C103.117 29.5283 102.704 29.7787 102.392 30.2834C102.085 30.7898 101.928 31.534 101.928 32.5195V36.7139C101.928 37.6553 101.972 38.1829 102.067 38.2847C102.253 38.4812 102.584 38.576 103.059 38.576H103.245V39.4705H97.5984V38.576H97.9C98.476 38.576 98.7837 38.3059 98.8278 37.7636C98.8479 37.6357 98.8582 37.2693 98.8582 36.6666V31.099C98.8582 30.2339 98.794 29.7074 98.6655 29.518C98.5408 29.3268 98.2691 29.2321 97.857 29.2321H97.6V28.3403H101.591V29.7891ZM113.478 39.808C111.626 39.808 110.695 38.7578 110.695 36.6595V29.273H108.705V28.3806H109.01C110.1 28.3806 111.02 27.7681 111.779 26.5355C112.429 25.5015 112.761 24.4431 112.781 23.3684H113.716V28.3806H115.841V29.273H113.716V37.0319C113.716 37.9466 113.998 38.4066 114.562 38.4066C115.06 38.4066 115.382 37.9727 115.527 37.1059C115.578 36.7945 115.605 36.1711 115.605 35.2439H116.648C116.648 36.7749 116.509 37.823 116.234 38.3718C115.772 39.3338 114.851 39.808 113.478 39.808ZM23.3589 17.6016C15.5166 17.6016 10.3933 24.0473 10.3933 30.0477C10.3933 33.4941 11.2329 35.2102 12.1536 36.855C13.3149 33.7347 15.6359 27.5269 15.6359 27.5269C15.6359 27.5269 16.7171 26.9683 16.7171 27.05L18.2759 23.0875L19.2782 22.5675L20.5207 19.9253L23.2375 20.3658L28.762 23.4463L34.9638 25.1683C33.3659 21.0872 28.8431 17.6016 23.3589 17.6016ZM23.2772 44.1751C19.8766 44.1751 15.7159 42.9767 12.7132 39.2935H33.8058C31.3617 42.4557 27.1635 44.1751 23.2772 44.1751ZM27.4417 38.6571H25.5187L29.087 34.2122L29.4458 34.8922L27.4417 38.6571ZM29.3239 24.5264L23.2032 20.9668L20.9606 20.5656V22.206L22.6821 23.8089L20.28 23.6058C20.28 23.6058 20.3579 23.7277 22.3571 25.8484L31.4837 27.3685L33.0817 28.4095L28.9242 28.6093L27.2043 34.8922L21.5595 38.6571H17.8763L19.1187 36.213L18.9173 36.1325L15.5945 38.6582H14.7958L18.1964 33.891C18.357 32.532 18.2759 33.132 18.4773 30.6891L17.9574 29.9704L16.5963 35.2515L13.7542 38.6576H13.0328L14.7136 36.2936L17.0748 29.0514L16.4738 29.329L15.4328 32.2113L14.7136 32.6104C14.7136 32.6104 13.0328 36.6933 12.1525 38.6903C10.8736 36.8566 9.4313 34.3744 9.4313 30.0482C9.4313 23.5649 14.995 16.7234 23.3589 16.7234C31.4026 16.7234 35.6885 23.1267 36.4061 26.4462L29.3239 24.5264ZM33.2847 33.8904L32.1202 34.8922L29.8046 38.6571H28.2812L29.8046 35.9686L31.0029 34.9733L32.7294 30.1305L34.5642 30.8905L33.2847 33.8904ZM34.3676 38.6571H31.2871L34.2054 34.0527L35.0858 31.05L36.9271 31.6914C36.7649 34.0124 36.0064 36.3688 34.3676 38.6571ZM30.6033 33.132L29.6827 33.2953L29.9266 31.4513L29.6827 31.0909L29.9266 29.0089L32.2829 29.9704L30.6033 33.132ZM117.387 38.5825H117.682C118.121 38.5825 118.399 38.4398 118.51 38.1698C118.581 37.9733 118.615 37.4854 118.615 36.7003V30.8807C118.615 30.0918 118.54 29.6296 118.377 29.4891C118.222 29.3503 117.987 29.2811 117.68 29.2811H117.386V28.3888H121.634V36.6998C121.634 37.6145 121.689 38.1491 121.804 38.3043C121.946 38.4937 122.21 38.5819 122.609 38.5819H122.915V39.4765H117.387V38.5825ZM118.196 25.2712C118.196 24.7687 118.372 24.3435 118.728 23.9896C118.896 23.8186 119.096 23.6835 119.317 23.5924C119.538 23.5013 119.775 23.4562 120.014 23.4599C120.255 23.4564 120.493 23.5015 120.715 23.5926C120.937 23.6836 121.139 23.8187 121.308 23.9896C121.67 24.3435 121.85 24.7682 121.85 25.2712C121.85 25.7754 121.67 26.2072 121.308 26.5676C120.949 26.9329 120.519 27.1142 120.014 27.1142C119.51 27.1142 119.084 26.9329 118.728 26.5676C118.556 26.3989 118.421 26.197 118.329 25.9742C118.237 25.7513 118.192 25.5121 118.196 25.2712Z" fill="#3A3A3A"/>
</g>
<defs>
<clipPath id="clip0_2_847">
<rect width="130.722" height="27.4517" fill="white" transform="translate(9.40414 16.7234)"/>
</clipPath>
</defs>
</svg>
