<svg width="150" height="60" viewBox="0 0 150 60" fill="none" xmlns="http://www.w3.org/2000/svg">
<g clip-path="url(#clip0_2_834)">
<path fill-rule="evenodd" clip-rule="evenodd" d="M57.2339 37.4767L58.4872 34.5644C59.8409 35.5767 61.6445 36.1029 63.4241 36.1029C64.7376 36.1029 65.5691 35.5968 65.5691 34.8295C65.549 32.6845 57.6999 34.3636 57.6396 28.9848C57.6195 26.2533 60.0458 24.1484 63.4843 24.1484C65.529 24.1484 67.5696 24.6545 69.0277 25.8074L67.8548 28.78C66.5211 27.9284 64.8621 27.3218 63.2835 27.3218C62.2109 27.3218 61.5039 27.8279 61.5039 28.4747C61.524 30.5796 69.4335 29.4267 69.5138 34.5644C69.5138 37.3562 67.1478 39.3205 63.7494 39.3205C61.2589 39.3165 58.9732 38.73 57.2339 37.4767ZM105.361 33.512C104.735 34.6046 103.562 35.3517 102.204 35.3517C100.2 35.3517 98.5847 33.7329 98.5847 31.7324C98.5847 29.732 100.204 28.1131 102.204 28.1131C103.558 28.1131 104.735 28.8603 105.361 29.9529L108.82 28.0328C107.526 25.727 105.036 24.1484 102.204 24.1484C98.0143 24.1484 94.6159 27.5467 94.6159 31.7365C94.6159 35.9262 98.0143 39.3245 102.204 39.3245C105.056 39.3245 107.526 37.7659 108.82 35.4401L105.361 33.512ZM71.2532 17.8538H75.5835V39.0353H71.2532V17.8538ZM110.519 17.8538V39.0353H114.849V32.6804L119.987 39.0353H125.531L118.995 31.4874L125.045 24.4456H119.742L114.845 30.2903V17.8538H110.519Z" fill="#3A3A3A"/>
<path d="M88.45 33.5521C87.8233 34.5845 86.5298 35.3517 85.0717 35.3517C83.0672 35.3517 81.4524 33.7329 81.4524 31.7324C81.4524 29.732 83.0712 28.1131 85.0717 28.1131C86.5298 28.1131 87.8233 28.9205 88.45 29.973V33.5521ZM88.45 24.4496V26.1689C87.743 24.9759 85.9835 24.1443 84.1397 24.1443C80.3357 24.1443 77.343 27.5025 77.343 31.7123C77.343 35.9221 80.3357 39.3205 84.1397 39.3205C85.9795 39.3205 87.739 38.493 88.45 37.2959V39.0152H92.7803V24.4496H88.45Z" fill="#3A3A3A"/>
<path fill-rule="evenodd" clip-rule="evenodd" d="M30.4686 33.532C30.4686 35.0103 29.2756 36.2033 27.7973 36.2033C26.3191 36.2033 25.126 35.0063 25.126 33.532C25.126 32.0578 26.3191 30.8607 27.7973 30.8607H30.4686V33.532ZM31.8022 33.532C31.8022 32.0538 32.9953 30.8607 34.4735 30.8607C35.9518 30.8607 37.1448 32.0538 37.1448 33.532V40.2083C37.1448 41.6865 35.9518 42.8795 34.4735 42.8795C32.9953 42.8795 31.8022 41.6865 31.8022 40.2083V33.532Z" fill="#3A3A3A"/>
<path fill-rule="evenodd" clip-rule="evenodd" d="M34.4737 22.8107C32.9954 22.8107 31.8024 21.6177 31.8024 20.1394C31.8024 18.6612 32.9954 17.4681 34.4737 17.4681C35.9519 17.4681 37.145 18.6612 37.145 20.1394V22.8107H34.4737ZM34.4737 24.1644C35.9519 24.1644 37.145 25.3575 37.145 26.8357C37.145 28.314 35.9519 29.507 34.4737 29.507H27.7774C26.2991 29.507 25.1061 28.31 25.1061 26.8357C25.1061 25.3615 26.2991 24.1644 27.7774 24.1644H34.4737Z" fill="#3A3A3A"/>
<path fill-rule="evenodd" clip-rule="evenodd" d="M45.1749 26.8357C45.1749 25.3575 46.3679 24.1644 47.8462 24.1644C49.3244 24.1644 50.5175 25.3575 50.5175 26.8357C50.5175 28.314 49.3244 29.507 47.8462 29.507H45.1749V26.8357ZM43.8412 26.8357C43.8412 28.314 42.6482 29.507 41.1699 29.507C39.6917 29.507 38.4986 28.314 38.4986 26.8357V20.1394C38.4986 18.6612 39.6917 17.4681 41.1699 17.4681C42.6482 17.4681 43.8412 18.6612 43.8412 20.1394V26.8357Z" fill="#3A3A3A"/>
<path fill-rule="evenodd" clip-rule="evenodd" d="M41.1699 37.537C42.6482 37.537 43.8412 38.73 43.8412 40.2083C43.8412 41.6865 42.6482 42.8795 41.1699 42.8795C39.6917 42.8795 38.4986 41.6865 38.4986 40.2083V37.537H41.1699ZM41.1699 36.2033C39.6917 36.2033 38.4986 35.0103 38.4986 33.532C38.4986 32.0538 39.6917 30.8607 41.1699 30.8607H47.8662C49.3445 30.8607 50.5375 32.0538 50.5375 33.532C50.5375 35.0103 49.3445 36.2033 47.8662 36.2033H41.1699Z" fill="#3A3A3A"/>
</g>
<defs>
<clipPath id="clip0_2_834">
<rect width="100.425" height="25.4114" fill="white" transform="translate(25.1061 17.4681)"/>
</clipPath>
</defs>
</svg>
