<svg width="150" height="60" viewBox="0 0 150 60" fill="none" xmlns="http://www.w3.org/2000/svg">
<g clip-path="url(#clip0_2_862)">
<path d="M51.4477 23.747C50.0103 23.0283 48.5009 22.7408 46.8478 22.7408C45.2666 22.7408 43.8291 23.0283 42.4635 23.6033C41.0979 24.1783 39.9479 24.897 38.8698 25.9033C37.8636 26.9095 37.073 28.0595 36.498 29.3532C35.923 30.6469 35.6355 32.0125 35.6355 33.3781C35.6355 35.2468 36.0668 36.8281 36.9293 38.2655C37.7917 39.703 39.0136 40.7811 40.5229 41.5717C42.0323 42.3623 43.6135 42.7217 45.4104 42.7217C46.9197 42.7217 48.2853 42.4342 49.579 41.9304C50.8728 41.428 52.0227 40.6367 53.029 39.7023C54.0352 38.7679 54.7539 37.618 55.3289 36.2524C55.9039 34.8868 56.1914 33.5212 56.1914 31.9399C56.1914 29.9275 55.7602 28.2025 54.8977 26.8369C54.0352 25.472 52.8852 24.4658 51.4477 23.747ZM49.2915 34.3844C48.9322 35.2468 48.4291 35.8937 47.7822 36.4687C47.1353 36.9718 46.4166 37.2593 45.5541 37.2593C44.5479 37.2593 43.6854 36.8999 43.1104 36.1812C42.4635 35.4625 42.176 34.6 42.176 33.5219C42.176 32.8031 42.3198 32.0125 42.6073 31.15C42.8948 30.2876 43.3979 29.5688 44.0448 28.9938C44.6916 28.4188 45.4822 28.1313 46.4885 28.1313C47.4947 28.1313 48.2853 28.4907 48.8603 29.1376C49.5072 29.7844 49.7946 30.7188 49.7946 31.8688C49.7946 32.7313 49.6509 33.5937 49.2915 34.3844ZM133.168 23.1721C132.665 23.1002 132.234 23.0283 131.731 22.9564C131.228 22.8846 130.725 22.8846 130.293 22.8127C129.79 22.7408 129.359 22.7408 128.999 22.7408C127.059 22.7408 126.053 22.8846 124.4 23.1721C122.746 23.4596 121.309 23.8189 120.087 24.1064L117.212 42.2905H123.753L126.053 27.6289C126.34 27.5571 127.634 27.3415 128.066 27.3415C129 27.3415 129.79 27.4133 130.581 27.5571C131.372 27.7008 132.019 27.8446 132.594 27.9164L134.391 23.4603C134.031 23.3158 133.671 23.2439 133.168 23.1721ZM95.147 18.2128L84.4378 42.2905H90.4033L101.687 18.2128H95.147ZM36.8574 23.0283H19.4639L18.8171 27.4845H26.9388L16.589 42.2905H34.0543L34.7012 37.6905H26.6513L36.8574 23.0283ZM85.8034 25.472H79.2629L83.4316 42.2905L87.169 33.6656L85.8034 25.472ZM112.397 23.6752C111.175 23.0283 109.808 22.7408 108.3 22.7408C106.287 22.7408 104.491 23.2439 102.909 24.2502C101.328 25.2564 100.034 26.5501 99.1719 28.2751C98.2375 29.9282 97.8063 31.7969 97.8063 33.7375C97.8063 35.0312 98.0938 36.3968 98.5976 37.7624C99.1726 39.128 100.179 40.278 101.688 41.2124C103.198 42.2186 105.282 42.6498 107.869 42.6498C109.091 42.6498 110.098 42.578 110.961 42.3631C111.751 42.1474 112.829 41.7881 114.195 41.285L115.129 36.5413C113.692 37.1163 112.47 37.5475 111.463 37.835C110.458 38.1218 109.307 38.2663 107.942 38.2663C105.354 38.2663 103.989 36.9007 103.989 34.2413H116.207C116.351 33.2351 116.494 32.3007 116.494 31.4383C116.494 29.4977 116.135 27.9164 115.344 26.5508C114.687 25.307 113.656 24.301 112.397 23.6752ZM110.456 30.6469V30.9344H104.562C104.994 29.7844 105.497 28.8501 106 28.1313C106.503 27.4126 107.222 27.0532 108.156 27.0532C109.665 27.0532 110.384 28.1313 110.384 30.2876C110.456 30.5032 110.456 30.575 110.456 30.6469ZM73.8005 23.747C72.363 23.0283 70.8537 22.7408 69.2006 22.7408C67.6193 22.7408 66.1819 23.0283 64.8163 23.6033C63.4507 24.1783 62.3007 24.897 61.2226 25.9033C60.2163 26.9095 59.4257 28.0595 58.8507 29.3532C58.2758 30.6469 57.9883 32.0125 57.9883 33.3781C57.9883 35.2468 58.4195 36.8281 59.282 38.2655C60.1445 39.703 61.3663 40.7811 62.8757 41.5717C64.385 42.3631 65.9662 42.7224 67.7631 42.7224C69.2724 42.7224 70.638 42.4349 71.9318 41.9311C73.2255 41.4287 74.3755 40.6374 75.3817 39.703C76.3872 38.7687 77.1059 37.6187 77.6809 36.2531C78.2566 34.8875 78.5434 33.5219 78.5434 31.9406C78.5434 29.9282 78.1122 28.2032 77.2497 26.8376C76.3872 25.472 75.2379 24.4658 73.8005 23.747ZM71.6443 34.3844C71.2849 35.2468 70.7818 35.8937 70.1349 36.4687C69.4881 36.9718 68.7693 37.2593 67.9068 37.2593C66.9006 37.2593 66.0381 36.8999 65.4631 36.1812C64.8163 35.4625 64.5288 34.6 64.5288 33.5219C64.5288 32.8031 64.6725 32.0125 64.96 31.15C65.2475 30.2876 65.7506 29.5688 66.3975 28.9938C67.0443 28.4188 67.835 28.1313 68.9131 28.1313C69.9193 28.1313 70.7099 28.4907 71.2849 29.1376C71.9318 29.7844 72.2193 30.7188 72.2193 31.8688C72.1474 32.7313 72.0036 33.5937 71.6443 34.3844Z" fill="#3A3A3A"/>
</g>
<defs>
<clipPath id="clip0_2_862">
<rect width="117.831" height="24.5089" fill="white" transform="translate(16.5744 18.2128)"/>
</clipPath>
</defs>
</svg>
